# xmcd
#
# Track frame offsets: 
#        150
#        12372
#        23727
#        37402
#        50020
#        63690
#        76362
#        90080
#        100677
#        115357
#        125365
#        138822
#        148365
#        158017
#        169410
#        181567
#        193867
#        205782
#        216475
#        228265
#        245527
#        257222
#        271567
#        294862
#        305430
#        318272
#
# Disc length: 4439 seconds
#
# Revision: 4
# Processed by: cddbd v1.5.2PL0 Copyright (c) Steve Scherf et al.
# Submitted via: ExactAudioCopyFreeDBPlugin 1.0
#
DISCID=7011551a
DTITLE=B.B. King - B.B. King:  King of the Blues [box set]
DYEAR=1992
DGENRE=Blues
TTITLE0=Miss Martha King
TTITLE1=She's Dynamite
TTITLE2=Three O'Clock Blues
TTITLE3=Please Love Me
TTITLE4=You Upset Me Baby
TTITLE5=Everyday I Have the Blues
TTITLE6=Rock Me Baby
TTITLE7=Recession Blues
TTITLE8=Don't Get Around Much Anymore
TTITLE9=I'm Gonna Sit in 'Til You Give In
TTITLE10=Blues at Midnight
TTITLE11=Sneakin' Around
TTITLE12=My Baby's Comin' Home
TTITLE13=Slowly Losing My Mind
TTITLE14=How Blue Can You Get
TTITLE15=Rockin' Awhile
TTITLE16=Help the Poor
TTITLE17=Stop Leadin' Me On
TTITLE18=Never Trust a Woman
TTITLE19=Sweet Little Angel (live at the Regal)
TTITLE20=All Over Again
TTITLE21=Sloppy Drunk
TTITLE22=Don't Answer the Door, Parts 1 and 2
TTITLE23=I Done Got Wise
TTITLE24=Think it Over
TTITLE25=Gambler's Blues (live)
EXTD=
EXTT0=
EXTT1=
EXTT2=
EXTT3=
EXTT4=
EXTT5=
EXTT6=
EXTT7=
EXTT8=
EXTT9=
EXTT10=
EXTT11=
EXTT12=
EXTT13=
EXTT14=
EXTT15=
EXTT16=
EXTT17=
EXTT18=
EXTT19=
EXTT20=
EXTT21=
EXTT22=
EXTT23=
EXTT24=
EXTT25=
PLAYORDER=
